<svg xmlns="http://www.w3.org/2000/svg" viewBox="0 0 342 513" fill="none">
  <rect width="342" height="513" fill="#E8DCC8"/>
  <rect x="21" y="21" width="300" height="471" fill="#F5EFE6" stroke="#8B4536" stroke-width="2"/>
  
  <!-- Tree icon -->
  <g transform="translate(171, 256) scale(0.14) translate(-643, -859)">
    <path fill="#8B4536" d="M648.801,61.134l-0.11,0.916c-4.149,1.878-8.546,3.16-12.659,5.102c-23.549,13.282-22.999,45.437-1.273,57.076
      c16.334,9.214,37.769,1.67,44.884-16.323c8.664-21.282-6.858-45.488-30.53-46.689l0.055-0.943
      c16.433-2.4,32.848,9.279,37.776,24.814c8.343,23.306-8.35,51.012-36.429,52.459c-6.899,19.947-14.698,42.904-43.931,105.743
      c1.163,0.348,2.061-0.669,3.041-1.118c12.654-7.387,65.423-38.135,80.122-36.072c5.331,6.651-81.887,55.146-93.414,61.28
      c-7.572,4.636-16.281-4.132-11.569-11.679c43.806-85.462,61.876-118.256,61.876-118.256c-22.497-0.742-41.05-21.083-38.445-44.179
      C610.295,70.481,633.8,54.516,648.801,61.134z"/>
    <path fill="#8B4536" d="M648.297,74.371c0.009,0.293,0.037,0.898,0.046,1.191c-28.681,9.685-19.553,37.837-1.805,40.432
      c27.255,4.504,31.865-38.792,2.959-41.229l-0.467-0.696c15.934-1.778,28.77,14.565,23.651,30.494
      c-7.233,24.397-43.332,22.709-48.557-2.116C620.03,84.835,637.205,70.434,648.297,74.371z"/>
    <path fill="#8B4536" d="M700.363,233.003c11.089-5.19,16.899,1.841,10.149,9.16c-3.929,4.247-125.776,135.607-130.924,138.334
      c-4.314-3.954,85.302-106.358,98.14-121.48c-47.398,23.004-103.882,53.209-117.321,51.333
      C562.057,301.093,691.618,237.25,700.363,233.003z"/>
    <path fill="#8B4536" d="M717.336,288.257c2.19,9.298-151.957,143.232-152.303,144.875c90.643-36.997,187.69-75.447,203.709-73.5l-0.284,0.953
      c-26.689,19.555-206.365,90.846-236.969,102.922c-20.306,8.206-34.435,2.389-22.387-7.768
      C512.167,453.199,713.23,286.731,717.336,288.257z"/>
    <path fill="#8B4536" d="M810.667,383.942c5.766,0,13.648,1.442,12.146,6.998c-1.949,8.373-276.33,244.442-281.267,244.499
      c-3.829-12.227,197.451-200.87,198.451-201.813l-0.394-0.403C719,442.838,479.898,553.628,450.615,552.083
      C456.975,538.966,783.017,384.71,810.667,383.942z"/>
    <path fill="#8B4536" d="M800.097,467.362c8.687,8.517-302.13,251.418-305.568,255.216c86.222-39.026,373.65-170.185,402.564-168.571
      c-4.4,15.556-442.247,210.441-474.579,224.631c-31.614,13.135-54.953,10.993-43.07-1.786
      C385.306,770.966,792.167,466.814,800.097,467.362z"/>
    <path fill="#8B4536" d="M771.536,518.218c0.824-12.366,10.964-23.908,23.523-25.071c2.391-0.412,4.379,1.127,6.513,1.777
      c0.449-0.247,1.356-0.76,1.814-1.017c27.904-2.636,39.301,38.08,12.513,52.487C795.433,557.9,769.345,541.409,771.536,518.218
       M782.391,519.116c-0.99,24.707,35.419,29.056,40.835,4.562c3.01-12.871-5.751-26.428-20.921-28.414
      C799.628,498.343,782.581,502.355,782.391,519.116z"/>
    <path fill="#8B4536" d="M437.269,586.002c1.171-16.547,18.451-29.193,29.843-23.147c1.072-0.705,2.281-1.337,3.636-1.172
      c24.875-0.561,35.769,33.086,15.719,49.272C467.02,627.938,434.712,612.16,437.269,586.002 M467.506,563.377
      c-1.182,2.107-3.792,2.501-5.743,3.609c-9.178,3.985-15.315,14.537-13.291,24.512c5.283,27.666,47.134,17.741,40.451-10.149
      C486.77,571.575,477.546,563.579,467.506,563.377z"/>
    <path fill="#8B4536" d="M943.451,599.77c19.63-5.127,44.65-7.275,34.561,6.055c-12.202,14.893-560.436,388.028-567.086,387.092l-0.055-1.017
      c22.378-31.874,404.935-308.446,413.281-314.49l-0.082-0.614c-44.738,19.74-480.946,211.661-529.878,215.919
      c-0.027-0.33-0.092-0.998-0.119-1.337C333.831,861.634,906.072,609.677,943.451,599.77z"/>
    <path fill="#8B4536" d="M954.15,701.821c0.192,0.357,0.568,1.081,0.76,1.447c-21.358,35.058-537.271,373.737-537.271,373.737
      c47.485-16.45,607.192-210.183,656.689-202.051c0.39,17.742-551.179,205.955-576.997,214.683
      c-213.12,72.047-228.822,78.562-258.404,75.827c-20.4-2.536-23.69-11.918-1.74-26.93
      C288.146,1106.731,939.237,701.487,954.15,701.821z"/>
    <path fill="#8B4536" d="M916.63,766.418c-3.184-20.925,18.907-39.217,32.106-31.052c3.376-5.711,33.712,3.067,31.474,29.266
      c-0.595,15.728-14.711,29.166-30.365,29.422C933.851,795.079,918.361,782.42,916.63,766.418 M949.405,735.521
      c-2.51,2.821-6.385,3.572-9.517,5.469c-7.566,4.772-12.714,13.749-11.661,22.818c1.883,21.498,31.813,27.496,41.678,7.273
      C977.392,756.385,967.566,737.481,949.405,735.521z"/>
    <path fill="#8B4536" d="M1068.915,899.329c0.037,1.31-1.502,1.695-2.363,2.299c-1.077,0.589-28.974,10.321-25.291,36.145
      c3.672,33.333,53.021,34.741,58.761,0.934c3.817-18.275-9.924-38.102-30.805-39.69c-0.055-0.33-0.165-0.998-0.22-1.337
      c22.365-6.397,49.454,20.345,40.597,49.519c-10.112,36.465-61.421,41.63-79.225,8.079
      C1009.791,918.445,1053.515,884.609,1068.915,899.329z"/>
    <path fill="#8B4536" d="M296.169,901.573c11.063-3.203,11.818,1.134,14.299,1.118c3.009-3.122,17.068-1.653,26.445,6.916
      c22.083,19.581,10.596,58.383-20.07,63.112c-27.792,5.009-52.237-21.889-43.052-48.731
      C277.244,913.61,285.699,904.917,296.169,901.573 M310.77,903.085c-0.137,0.385-0.412,1.136-0.55,1.521
      c-2.565,1.622-25.976,9.234-24.219,31.419c0.559,12.055,10.516,22.891,22.515,24.356c23.021,3.506,39.431-23.858,25.272-44.005
      C328.65,908.727,319.875,903.918,310.77,903.085z"/>
    <path fill="#8B4536" d="M1091.504,1028.055c51.743-9.646,93.288-1.774,87.414,14.152c-7.681,19.406-261.708,123.863-511.265,241.861
      c3.83,35.777,16.146,73.443-6.723,309.526c-2.299,21.682-4.562,43.382-7.117,65.036c-1.136,1.081-3.151,1.063-4.113-0.211
      c-2.263-2.665-2.693-6.275-3.408-9.545c-25.855-120.458-11.615-349.939-11.615-349.939
      c-87.976,39.718-309.461,137.868-394.805,175.551c-4.104,2.043-8.849,3.875-13.447,2.565
      c-18.819-14.922,704.704-369.712,705.256-370.714c-91.474,18.3-810.539,171.83-825.975,145.69
      C156.951,1215.698,1029.962,1040.221,1091.504,1028.055z"/>
    <path fill="#8B4536" d="M1137.679,1096.416c7.832-6.931,20.141-12.674,29.981-6.091c-0.237-4.983,28.112-3.391,38.38,19.126
      c7.099,14.326,4.525,32.619-5.991,44.609c-22.207,26.78-67.546,16.04-74.965-18.439
      C1121.814,1121.532,1126.751,1105.924,1137.679,1096.416 M1167.999,1090.562c-2.572,5.091-25.257,6.648-27.947,31.373
      c-1.475,11.404,4.534,23.175,14.445,28.927c21.659,13.185,50.205-7.011,44.279-33.709
      C1196.001,1102.791,1182.527,1090.984,1167.999,1090.562z"/>
    <path fill="#8B4536" d="M119.674,1268.642c-3.041,3.215-7.823,4.113-11.578,6.385c-23.459,14.188-20.682,46.28,2.116,55.4
      c22.935,9.585,47.748-13.197,39.663-38.554c-6.52-22.197-29.237-23.594-30.237-24.21c-0.394-1.74,2.024-1.374,3.014-1.786
      c28.645-2.01,48.036,30.004,35.394,56.307c-15.741,34.803-67.404,31.678-79.664-3.957
      C64.4,1280.207,109.575,1254.611,119.674,1268.642z"/>
    <path fill="#8B4536" d="M228.934,1484.69c3.783-0.476,8.601,0.43,10.836,3.765c-3.069,3.169-7.942,4.076-11.697,6.394
      c-9.609,5.927-16.461,16.827-16.186,28.295c0.02,25.394,31.774,39.299,50.334,20.482c19.17-18.302,7.384-53.374-22.451-56.059
      c-1.378-4.532,29.992-3.904,39.461,21.975c15.961,38.731-32.513,74.724-66.355,47.98
      C183.134,1535.37,195.975,1489.061,228.934,1484.69z"/>
  </g>
    
  <!-- Text -->
  <text x="171" y="415" font-family="serif" font-size="16" fill="#8B4536" text-anchor="middle">No Poster Available</text>
</svg>


